<svg width="11" height="14" viewBox="0 0 11 14" fill="none" xmlns="http://www.w3.org/2000/svg">
<path d="M1.59516 7.55778L2.43191 5.04753H8.56809L9.40484 7.55778M8.56809 10.347C8.12182 10.347 7.73134 9.95647 7.73134 9.5102C7.73134 9.06393 8.12182 8.67345 8.56809 8.67345C9.01436 8.67345 9.40484 9.06393 9.40484 9.5102C9.40484 9.95647 9.01436 10.347 8.56809 10.347ZM2.43191 10.347C1.98564 10.347 1.59516 9.95647 1.59516 9.5102C1.59516 9.06393 1.98564 8.67345 2.43191 8.67345C2.87818 8.67345 3.26866 9.06393 3.26866 9.5102C3.26866 9.95647 2.87818 10.347 2.43191 10.347ZM9.34906 4.76861C9.23749 4.43391 8.90279 4.21077 8.56809 4.21077H2.43191C2.04143 4.21077 1.76251 4.43391 1.65094 4.76861L0.479492 8.11561V12.5783C0.479492 12.913 0.702626 13.1361 1.03733 13.1361H1.59516C1.92986 13.1361 2.15299 12.913 2.15299 12.5783V12.0205H8.847V12.5783C8.847 12.913 9.07014 13.1361 9.40484 13.1361H9.96267C10.2974 13.1361 10.5205 12.913 10.5205 12.5783V8.11561M3.26866 0.86377L5.5 3.37402L7.73134 0.86377H3.26866Z" fill="white"/>
</svg>
