<svg width="40" height="20" viewBox="0 0 40 20" fill="none" xmlns="http://www.w3.org/2000/svg">
<path d="M4.26466 4.55498C4.26466 3.90458 3.93112 3.43763 3.4058 3.20415C3.88109 2.95399 4.18128 2.50372 4.18128 1.92836C4.18128 0.927746 3.30574 0.285683 2.22173 0.285683C1.45459 0.285683 0.77084 0.477468 0.203823 0.977776L0.920932 1.71156C1.27115 1.40304 1.69641 1.30298 2.1717 1.30298C2.63032 1.30298 3.02223 1.55313 3.02223 2.01175C3.02223 2.48704 2.72204 2.76221 2.2134 2.76221H1.46293V3.7128H2.20506C2.73872 3.7128 3.10561 4.01298 3.10561 4.52997C3.10561 5.00526 2.67201 5.28877 2.16336 5.28877C1.6297 5.28877 1.13773 5.14701 0.737486 4.78846L-0.00463867 5.53892C0.645762 6.15597 1.32952 6.32274 2.20506 6.32274C3.36411 6.32274 4.26466 5.63065 4.26466 4.55498Z" fill="white"/>
<path d="M9.9087 6.27271L7.7407 0.335714H6.8318L4.67214 6.27271H5.88122L6.23977 5.22206H8.34941L8.69962 6.27271H9.9087ZM8.04088 4.24646H6.56497L7.31543 2.08679L8.04088 4.24646Z" fill="white"/>
<path d="M15.3178 6.27271L13.2082 2.6955L15.1761 0.335714H13.7669L11.6739 2.92064V0.335714H10.5149V6.27271H11.6739V4.48827L12.4411 3.57104L13.967 6.27271H15.3178Z" fill="white"/>
<path d="M20.5214 6.27271L18.3534 0.335714H17.4445L15.2848 6.27271H16.4939L16.8524 5.22206H18.9621L19.3123 6.27271H20.5214ZM18.6535 4.24646H17.1776L17.9281 2.08679L18.6535 4.24646Z" fill="white"/>
<path d="M24.8548 4.55498C24.8548 3.90458 24.5213 3.43763 23.996 3.20415C24.4713 2.95399 24.7714 2.50372 24.7714 1.92836C24.7714 0.927746 23.8959 0.285683 22.8119 0.285683C22.0448 0.285683 21.361 0.477468 20.794 0.977776L21.5111 1.71156C21.8613 1.40304 22.2866 1.30298 22.7619 1.30298C23.2205 1.30298 23.6124 1.55313 23.6124 2.01175C23.6124 2.48704 23.3122 2.76221 22.8036 2.76221H22.0531V3.7128H22.7952C23.3289 3.7128 23.6958 4.01298 23.6958 4.52997C23.6958 5.00526 23.2622 5.28877 22.7535 5.28877C22.2199 5.28877 21.7279 5.14701 21.3277 4.78846L20.5855 5.53892C21.2359 6.15597 21.9197 6.32274 22.7952 6.32274C23.9543 6.32274 24.8548 5.63065 24.8548 4.55498Z" fill="white"/>
<path d="M30.4989 6.27271L28.3309 0.335714H27.422L25.2623 6.27271H26.4714L26.8299 5.22206H28.9396L29.2898 6.27271H30.4989ZM28.6311 4.24646H27.1551L27.9056 2.08679L28.6311 4.24646Z" fill="white"/>
<path d="M34.9241 1.36968V0.335714H30.6631V1.36968H32.2141V6.27271H33.3731V1.36968H34.9241Z" fill="white"/>
<path d="M40.0046 4.42157C40.0046 3.33756 39.2375 2.57042 38.0784 2.57042H36.9027V0.335714H35.7436V6.27271H38.0784C39.2291 6.27271 40.0046 5.50557 40.0046 4.42157ZM38.8456 4.42157C38.8456 4.91354 38.512 5.23874 37.9867 5.23874H36.9027V3.6044H37.9867C38.512 3.6044 38.8456 3.93794 38.8456 4.42157Z" fill="white"/>
<path d="M10.6252 19.6143L6.28922 7.74028H4.47143L0.152099 19.6143H2.57026L3.28737 17.513H7.50663L8.20707 19.6143H10.6252ZM6.88959 15.5618H3.93777L5.43869 11.2424L6.88959 15.5618Z" fill="white"/>
<path d="M18.3916 13.5272C19.3755 12.9768 19.8592 12.143 19.8592 11.009C19.8592 9.00773 18.425 7.74028 16.1902 7.74028H11.4206V19.6143H16.3904C18.6251 19.6143 20.0259 18.2968 20.0259 16.2122C20.0259 15.3783 19.8091 14.7112 19.2922 14.1609C19.042 13.9108 18.8586 13.7773 18.3916 13.5272ZM13.7387 12.5432V9.80822H16.0068C16.9574 9.80822 17.5411 10.3252 17.5411 11.1757C17.5411 12.0263 16.9574 12.5432 16.0068 12.5432H13.7387ZM13.7387 17.5463V14.6279H16.1569C17.1075 14.6279 17.7078 15.1782 17.7078 16.0788C17.7078 16.9793 17.1075 17.5463 16.1569 17.5463H13.7387Z" fill="white"/>
<path d="M29.3684 9.80822V7.74028H20.8465V9.80822H23.9484V19.6143H26.2665V9.80822H29.3684Z" fill="white"/>
<path d="M38.9625 13.6773V12.8434C38.9625 10.9256 38.6123 9.79154 37.7784 8.94102C36.9446 8.09049 35.8439 7.64022 34.5765 7.64022C33.2923 7.64022 32.1916 8.09049 31.3578 8.94102C30.4406 9.87493 30.1904 10.8255 30.1904 13.1936V13.844C30.1904 15.1615 30.107 17.1294 31.3578 18.4135C32.1916 19.2641 33.2923 19.7143 34.5765 19.7143C35.8606 19.7143 36.9446 19.2807 37.7784 18.4135C39.0459 17.096 38.9625 15.3783 38.9625 13.6773ZM36.6444 13.4605C36.6444 15.8786 36.5443 16.4623 36.0607 17.0127C35.6938 17.4296 35.1768 17.6464 34.5765 17.6464C33.9761 17.6464 33.4758 17.4129 33.0755 17.0127C32.4418 16.3789 32.5085 14.9614 32.5085 13.5105C32.5085 12.0429 32.5419 10.9256 33.0755 10.3419C33.4424 9.92496 33.9761 9.70816 34.5765 9.70816C35.1768 9.70816 35.6938 9.92496 36.0607 10.3419C36.5277 10.8589 36.6444 11.5093 36.6444 13.4605Z" fill="white"/>
</svg>
