<svg width="12" height="15" viewBox="0 0 12 15" fill="none" xmlns="http://www.w3.org/2000/svg">
<path d="M6 0.625C4.54182 0.626654 3.14383 1.20665 2.11274 2.23774C1.08165 3.26883 0.501654 4.66682 0.5 6.125C0.5 10.8313 5.5 14.3856 5.71313 14.5344C5.7972 14.5933 5.89735 14.6249 6 14.6249C6.10265 14.6249 6.2028 14.5933 6.28687 14.5344C6.5 14.3856 11.5 10.8313 11.5 6.125C11.4983 4.66682 10.9184 3.26883 9.88726 2.23774C8.85617 1.20665 7.45818 0.626654 6 0.625ZM6 4.125C6.39556 4.125 6.78224 4.2423 7.11114 4.46206C7.44004 4.68182 7.69638 4.99418 7.84776 5.35963C7.99913 5.72509 8.03874 6.12722 7.96157 6.51518C7.8844 6.90314 7.69392 7.25951 7.41421 7.53921C7.13451 7.81892 6.77814 8.0094 6.39018 8.08657C6.00222 8.16374 5.60009 8.12413 5.23463 7.97276C4.86918 7.82138 4.55682 7.56504 4.33706 7.23614C4.1173 6.90724 4 6.52056 4 6.125C4 5.59457 4.21071 5.08586 4.58579 4.71079C4.96086 4.33571 5.46957 4.125 6 4.125Z" fill="#D60000"/>
</svg>
