<svg width="16" height="16" viewBox="0 0 16 16" fill="none" xmlns="http://www.w3.org/2000/svg">
<path d="M13.3334 2.66667L8.00004 6L2.66671 2.66667V1.33333L8.00004 4.66667L13.3334 1.33333M13.3334 0H2.66671C1.92671 0 1.33337 0.593333 1.33337 1.33333V9.33333C1.33337 9.68696 1.47385 10.0261 1.7239 10.2761C1.97395 10.5262 2.31309 10.6667 2.66671 10.6667H13.3334C13.687 10.6667 14.0261 10.5262 14.2762 10.2761C14.5262 10.0261 14.6667 9.68696 14.6667 9.33333V1.33333C14.6667 0.979711 14.5262 0.640573 14.2762 0.390524C14.0261 0.140476 13.687 0 13.3334 0Z" fill="#D60000"/>
</svg>
