<svg width="16" height="16" viewBox="0 0 16 16" fill="none" xmlns="http://www.w3.org/2000/svg">
<path d="M7.77698 11.1587L10.777 8.15869L7.77698 5.15869L6.72698 6.20869L7.92698 7.40869H4.77698V8.90869H7.92698L6.72698 10.1087L7.77698 11.1587ZM7.77698 15.6587C6.73948 15.6587 5.76448 15.4617 4.85198 15.0677C3.93948 14.6737 3.14573 14.1394 2.47073 13.4649C1.79573 12.7899 1.26148 11.9962 0.867978 11.0837C0.474478 10.1712 0.277478 9.19619 0.276978 8.15869C0.276978 7.12119 0.473978 6.14619 0.867978 5.23369C1.26198 4.32119 1.79623 3.52744 2.47073 2.85244C3.14573 2.17744 3.93948 1.64319 4.85198 1.24969C5.76448 0.856191 6.73948 0.659191 7.77698 0.658691C8.81448 0.658691 9.78948 0.855691 10.702 1.24969C11.6145 1.64369 12.4082 2.17794 13.0832 2.85244C13.7582 3.52744 14.2927 4.32119 14.6867 5.23369C15.0807 6.14619 15.2775 7.12119 15.277 8.15869C15.277 9.19619 15.08 10.1712 14.686 11.0837C14.292 11.9962 13.7577 12.7899 13.0832 13.4649C12.4082 14.1399 11.6145 14.6744 10.702 15.0684C9.78948 15.4624 8.81448 15.6592 7.77698 15.6587ZM7.77698 14.1587C9.45198 14.1587 10.8707 13.5774 12.0332 12.4149C13.1957 11.2524 13.777 9.83369 13.777 8.15869C13.777 6.48369 13.1957 5.06494 12.0332 3.90244C10.8707 2.73994 9.45198 2.15869 7.77698 2.15869C6.10198 2.15869 4.68323 2.73994 3.52073 3.90244C2.35823 5.06494 1.77698 6.48369 1.77698 8.15869C1.77698 9.83369 2.35823 11.2524 3.52073 12.4149C4.68323 13.5774 6.10198 14.1587 7.77698 14.1587Z" fill="white"/>
</svg>
