<svg width="16" height="16" viewBox="0 0 16 16" fill="none" xmlns="http://www.w3.org/2000/svg">
<path d="M8.28516 11.4438L11.2852 8.44385L8.28516 5.44385L7.23516 6.49385L8.43516 7.69385H5.28516V9.19385H8.43516L7.23516 10.3938L8.28516 11.4438ZM8.28516 15.9438C7.24766 15.9438 6.27266 15.7468 5.36016 15.3528C4.44766 14.9588 3.65391 14.4246 2.97891 13.7501C2.30391 13.0751 1.76966 12.2813 1.37616 11.3688C0.982656 10.4563 0.785656 9.48135 0.785156 8.44385C0.785156 7.40635 0.982156 6.43135 1.37616 5.51885C1.77016 4.60635 2.30441 3.8126 2.97891 3.1376C3.65391 2.4626 4.44766 1.92835 5.36016 1.53485C6.27266 1.14135 7.24766 0.944348 8.28516 0.943848C9.32266 0.943848 10.2977 1.14085 11.2102 1.53485C12.1227 1.92885 12.9164 2.4631 13.5914 3.1376C14.2664 3.8126 14.8009 4.60635 15.1949 5.51885C15.5889 6.43135 15.7857 7.40635 15.7852 8.44385C15.7852 9.48135 15.5882 10.4563 15.1942 11.3688C14.8002 12.2813 14.2659 13.0751 13.5914 13.7501C12.9164 14.4251 12.1227 14.9596 11.2102 15.3536C10.2977 15.7476 9.32266 15.9443 8.28516 15.9438ZM8.28516 14.4438C9.96016 14.4438 11.3789 13.8626 12.5414 12.7001C13.7039 11.5376 14.2852 10.1188 14.2852 8.44385C14.2852 6.76885 13.7039 5.3501 12.5414 4.1876C11.3789 3.0251 9.96016 2.44385 8.28516 2.44385C6.61016 2.44385 5.19141 3.0251 4.02891 4.1876C2.86641 5.3501 2.28516 6.76885 2.28516 8.44385C2.28516 10.1188 2.86641 11.5376 4.02891 12.7001C5.19141 13.8626 6.61016 14.4438 8.28516 14.4438Z" fill="#D60000"/>
</svg>
