<svg width="16" height="17" viewBox="0 0 16 17" fill="none" xmlns="http://www.w3.org/2000/svg">
<path d="M10.0487 1.66699H5.95804C2.22204 1.66699 1.33337 2.55566 1.33337 6.28499V10.3757C1.33337 14.111 2.21537 15.0003 5.95137 15.0003H10.042C13.7774 15.0003 14.6667 14.1183 14.6667 10.3823V6.29166C14.6667 2.55566 13.7847 1.66699 10.0487 1.66699ZM12.0974 11.1803H11.1247C10.7567 11.1803 10.646 10.8823 9.98604 10.2223C9.41004 9.66699 9.16671 9.59766 9.02071 9.59766C8.81937 9.59766 8.76404 9.65299 8.76404 9.93099V10.8057C8.76404 11.0423 8.68737 11.181 8.06937 11.181C7.4696 11.1407 6.88799 10.9585 6.37244 10.6493C5.85689 10.3402 5.42215 9.91304 5.10404 9.40299C4.34882 8.46299 3.82334 7.35975 3.56937 6.18099C3.56937 6.03499 3.62471 5.90299 3.90271 5.90299H4.87471C5.12471 5.90299 5.21471 6.01433 5.31271 6.27099C5.78471 7.66033 6.59004 8.86833 6.91671 8.86833C7.04204 8.86833 7.09671 8.81299 7.09671 8.50033V7.06966C7.05537 6.41699 6.70871 6.36166 6.70871 6.12566C6.71316 6.06341 6.74169 6.00535 6.78823 5.96378C6.83478 5.92221 6.89569 5.90041 6.95804 5.90299H8.48604C8.69471 5.90299 8.76404 6.00699 8.76404 6.25699V8.18766C8.76404 8.39633 8.85404 8.46566 8.91671 8.46566C9.04204 8.46566 9.13871 8.39633 9.36804 8.16699C9.86061 7.56629 10.2631 6.89704 10.5627 6.18033C10.5933 6.09423 10.6513 6.02053 10.7277 5.97045C10.8042 5.92038 10.8949 5.89669 10.986 5.90299H11.9587C12.25 5.90299 12.312 6.04899 12.25 6.25699C11.8964 7.04928 11.4588 7.80136 10.9447 8.50033C10.84 8.66033 10.798 8.74366 10.9447 8.93099C11.0414 9.07699 11.382 9.36166 11.6114 9.63233C11.9446 9.96475 12.2214 10.3494 12.4307 10.771C12.514 11.0417 12.3747 11.1803 12.0974 11.1803Z" fill="#D60000"/>
</svg>
