<svg width="13" height="13" viewBox="0 0 13 13" fill="none" xmlns="http://www.w3.org/2000/svg">
<path d="M1.08555 11.9163L1.81788 9.22534C1.33533 8.39814 1.08181 7.45734 1.08338 6.49967C1.08338 3.50805 3.50842 1.08301 6.50005 1.08301C9.49167 1.08301 11.9167 3.50805 11.9167 6.49967C11.9167 9.4913 9.49167 11.9163 6.50005 11.9163C5.5428 11.9179 4.6024 11.6646 3.77546 11.1824L1.08555 11.9163ZM4.54517 3.95817C4.47522 3.96252 4.40687 3.98094 4.34421 4.01234C4.28546 4.04562 4.23182 4.08721 4.18496 4.13584C4.11996 4.19705 4.08313 4.25013 4.04359 4.30159C3.8434 4.56213 3.73571 4.88194 3.73755 5.21051C3.73863 5.47592 3.80796 5.7343 3.9163 5.97588C4.13784 6.46447 4.50238 6.98176 4.98392 7.46113C5.09984 7.57651 5.21305 7.69242 5.33492 7.80022C5.93259 8.32643 6.64481 8.7059 7.41492 8.90847L7.72313 8.95559C7.82334 8.96101 7.92355 8.95342 8.0243 8.94855C8.18205 8.94041 8.33609 8.89769 8.47551 8.82343C8.54644 8.78689 8.61567 8.74712 8.68297 8.70426C8.68297 8.70426 8.70626 8.68909 8.75067 8.65551C8.8238 8.60134 8.86876 8.56288 8.92942 8.49951C8.97438 8.45292 9.01338 8.39822 9.04317 8.33593C9.08542 8.24763 9.12767 8.07917 9.14501 7.93888C9.15801 7.83163 9.15421 7.77313 9.15259 7.73684C9.15042 7.67888 9.10221 7.61876 9.04967 7.5933L8.73442 7.45192C8.73442 7.45192 8.26317 7.24663 7.97555 7.11555C7.94522 7.10233 7.91272 7.0948 7.87967 7.09334C7.84261 7.08954 7.80517 7.09371 7.76985 7.10557C7.73453 7.11744 7.70217 7.13672 7.67492 7.16213V7.16105C7.67221 7.16105 7.63592 7.19193 7.2443 7.66642C7.22182 7.69663 7.19086 7.71946 7.15536 7.732C7.11986 7.74454 7.08143 7.74622 7.04496 7.73684C7.00967 7.7274 6.9751 7.71546 6.94151 7.70109C6.87434 7.67292 6.85105 7.66209 6.80501 7.64205L6.8023 7.64097C6.49242 7.50567 6.2055 7.32292 5.95188 7.0993C5.88363 7.03972 5.82026 6.97472 5.75526 6.91188C5.54215 6.7078 5.35643 6.47693 5.20276 6.22505L5.1708 6.17359C5.14784 6.13901 5.12928 6.10171 5.11555 6.06255C5.09496 5.98292 5.14859 5.91901 5.14859 5.91901C5.14859 5.91901 5.28021 5.77492 5.34142 5.69692C5.39239 5.6321 5.43994 5.56466 5.48388 5.49488C5.5478 5.39197 5.56784 5.28634 5.53426 5.20455C5.38259 4.83405 5.22551 4.46517 5.06409 4.09901C5.03213 4.02642 4.93734 3.97442 4.85121 3.96413C4.82196 3.96088 4.79271 3.95763 4.76346 3.95547C4.69072 3.95185 4.61783 3.95312 4.54517 3.95817Z" fill="#D60000"/>
</svg>
